<mxfile host="app.diagrams.net" agent="Mozilla/5.0 (Windows NT 10.0; Win64; x64) AppleWebKit/537.36 (KHTML, like Gecko) Chrome/130.0.0.0 Safari/537.36" version="24.9.0">
  <diagram name="1 oldal" id="LWZ_To6dk0wKPT4Nrk42">
    <mxGraphModel dx="1728" dy="922" grid="1" gridSize="10" guides="1" tooltips="1" connect="1" arrows="1" fold="1" page="1" pageScale="1" pageWidth="827" pageHeight="1169" math="0" shadow="0">
      <root>
        <mxCell id="0" />
        <mxCell id="1" parent="0" />
        <mxCell id="jY9FTlbAgUVIiKB3Txwj-2" value="" style="rounded=0;whiteSpace=wrap;html=1;" parent="1" vertex="1">
          <mxGeometry x="270" y="60" width="390" height="970" as="geometry" />
        </mxCell>
        <mxCell id="jY9FTlbAgUVIiKB3Txwj-1" value="Weboldal látogató" style="shape=umlActor;verticalLabelPosition=bottom;verticalAlign=top;html=1;outlineConnect=0;" parent="1" vertex="1">
          <mxGeometry x="50" y="605" width="30" height="60" as="geometry" />
        </mxCell>
        <mxCell id="jY9FTlbAgUVIiKB3Txwj-4" value="" style="ellipse;whiteSpace=wrap;html=1;" parent="1" vertex="1">
          <mxGeometry x="405" y="530" width="120" height="80" as="geometry" />
        </mxCell>
        <mxCell id="jY9FTlbAgUVIiKB3Txwj-6" value="Termékek megtekintése" style="text;html=1;align=center;verticalAlign=middle;whiteSpace=wrap;rounded=0;" parent="1" vertex="1">
          <mxGeometry x="435" y="555" width="60" height="30" as="geometry" />
        </mxCell>
        <mxCell id="jY9FTlbAgUVIiKB3Txwj-11" value="&lt;h1 style=&quot;margin-top: 0px;&quot;&gt;Autó alkatrész bolt&lt;/h1&gt;" style="text;html=1;whiteSpace=wrap;overflow=hidden;rounded=0;" parent="1" vertex="1">
          <mxGeometry x="360" y="20" width="230" height="50" as="geometry" />
        </mxCell>
        <mxCell id="EZhdQGaTNvwdU1ir6YuT-28" style="rounded=0;orthogonalLoop=1;jettySize=auto;html=1;entryX=0;entryY=0.5;entryDx=0;entryDy=0;" parent="1" source="jY9FTlbAgUVIiKB3Txwj-12" target="EZhdQGaTNvwdU1ir6YuT-5" edge="1">
          <mxGeometry relative="1" as="geometry" />
        </mxCell>
        <mxCell id="EZhdQGaTNvwdU1ir6YuT-29" style="rounded=0;orthogonalLoop=1;jettySize=auto;html=1;entryX=0;entryY=0.5;entryDx=0;entryDy=0;" parent="1" source="jY9FTlbAgUVIiKB3Txwj-12" target="jY9FTlbAgUVIiKB3Txwj-4" edge="1">
          <mxGeometry relative="1" as="geometry" />
        </mxCell>
        <mxCell id="jY9FTlbAgUVIiKB3Txwj-12" value="Új vásárló" style="shape=umlActor;verticalLabelPosition=bottom;verticalAlign=top;html=1;outlineConnect=0;" parent="1" vertex="1">
          <mxGeometry x="160" y="730" width="30" height="60" as="geometry" />
        </mxCell>
        <mxCell id="EZhdQGaTNvwdU1ir6YuT-30" style="rounded=0;orthogonalLoop=1;jettySize=auto;html=1;" parent="1" source="jY9FTlbAgUVIiKB3Txwj-13" edge="1">
          <mxGeometry relative="1" as="geometry">
            <mxPoint x="400" y="710" as="targetPoint" />
          </mxGeometry>
        </mxCell>
        <mxCell id="EZhdQGaTNvwdU1ir6YuT-31" style="rounded=0;orthogonalLoop=1;jettySize=auto;html=1;entryX=0;entryY=0.5;entryDx=0;entryDy=0;" parent="1" source="jY9FTlbAgUVIiKB3Txwj-13" target="EZhdQGaTNvwdU1ir6YuT-14" edge="1">
          <mxGeometry relative="1" as="geometry" />
        </mxCell>
        <mxCell id="EZhdQGaTNvwdU1ir6YuT-32" style="rounded=0;orthogonalLoop=1;jettySize=auto;html=1;entryX=0;entryY=0.5;entryDx=0;entryDy=0;" parent="1" source="jY9FTlbAgUVIiKB3Txwj-13" target="jY9FTlbAgUVIiKB3Txwj-4" edge="1">
          <mxGeometry relative="1" as="geometry" />
        </mxCell>
        <mxCell id="EZhdQGaTNvwdU1ir6YuT-400" style="rounded=0;orthogonalLoop=1;jettySize=auto;html=1;entryX=0;entryY=1;entryDx=0;entryDy=0;" parent="1" source="jY9FTlbAgUVIiKB3Txwj-13" target="EZhdQGaTNvwdU1ir6YuT-398" edge="1">
          <mxGeometry relative="1" as="geometry" />
        </mxCell>
        <mxCell id="jY9FTlbAgUVIiKB3Txwj-13" value="Regisztrált vásárló" style="shape=umlActor;verticalLabelPosition=bottom;verticalAlign=top;html=1;outlineConnect=0;" parent="1" vertex="1">
          <mxGeometry x="170" y="430" width="30" height="60" as="geometry" />
        </mxCell>
        <mxCell id="EZhdQGaTNvwdU1ir6YuT-1" value="" style="ellipse;whiteSpace=wrap;html=1;" parent="1" vertex="1">
          <mxGeometry x="405" y="670" width="120" height="80" as="geometry" />
        </mxCell>
        <mxCell id="EZhdQGaTNvwdU1ir6YuT-2" value="Vásárlás&lt;div&gt;(kosárba helyezés)&lt;/div&gt;" style="text;html=1;align=center;verticalAlign=middle;whiteSpace=wrap;rounded=0;" parent="1" vertex="1">
          <mxGeometry x="435" y="695" width="60" height="30" as="geometry" />
        </mxCell>
        <mxCell id="EZhdQGaTNvwdU1ir6YuT-3" value="" style="ellipse;whiteSpace=wrap;html=1;" parent="1" vertex="1">
          <mxGeometry x="405" y="825" width="120" height="80" as="geometry" />
        </mxCell>
        <mxCell id="EZhdQGaTNvwdU1ir6YuT-4" value="Fizetés" style="text;html=1;align=center;verticalAlign=middle;whiteSpace=wrap;rounded=0;" parent="1" vertex="1">
          <mxGeometry x="435" y="850" width="60" height="30" as="geometry" />
        </mxCell>
        <mxCell id="EZhdQGaTNvwdU1ir6YuT-5" value="" style="ellipse;whiteSpace=wrap;html=1;" parent="1" vertex="1">
          <mxGeometry x="405" y="930" width="120" height="80" as="geometry" />
        </mxCell>
        <mxCell id="EZhdQGaTNvwdU1ir6YuT-6" value="Regisztráció" style="text;html=1;align=center;verticalAlign=middle;whiteSpace=wrap;rounded=0;" parent="1" vertex="1">
          <mxGeometry x="435" y="955" width="60" height="30" as="geometry" />
        </mxCell>
        <mxCell id="EZhdQGaTNvwdU1ir6YuT-7" value="Extends" style="endArrow=block;endSize=16;endFill=0;html=1;rounded=0;" parent="1" source="jY9FTlbAgUVIiKB3Txwj-12" target="jY9FTlbAgUVIiKB3Txwj-1" edge="1">
          <mxGeometry width="160" relative="1" as="geometry">
            <mxPoint x="25" y="749" as="sourcePoint" />
            <mxPoint x="185" y="749" as="targetPoint" />
          </mxGeometry>
        </mxCell>
        <mxCell id="EZhdQGaTNvwdU1ir6YuT-9" value="Extends" style="endArrow=block;endSize=16;endFill=0;html=1;rounded=0;" parent="1" source="jY9FTlbAgUVIiKB3Txwj-13" target="jY9FTlbAgUVIiKB3Txwj-1" edge="1">
          <mxGeometry width="160" relative="1" as="geometry">
            <mxPoint x="20" y="485" as="sourcePoint" />
            <mxPoint x="180" y="485" as="targetPoint" />
          </mxGeometry>
        </mxCell>
        <mxCell id="EZhdQGaTNvwdU1ir6YuT-12" value="Use" style="endArrow=open;endSize=12;dashed=1;html=1;rounded=0;exitX=0.5;exitY=1;exitDx=0;exitDy=0;entryX=0.5;entryY=0;entryDx=0;entryDy=0;" parent="1" source="EZhdQGaTNvwdU1ir6YuT-1" target="EZhdQGaTNvwdU1ir6YuT-3" edge="1">
          <mxGeometry width="160" relative="1" as="geometry">
            <mxPoint x="385" y="780" as="sourcePoint" />
            <mxPoint x="545" y="780" as="targetPoint" />
          </mxGeometry>
        </mxCell>
        <mxCell id="EZhdQGaTNvwdU1ir6YuT-13" value="Use" style="endArrow=open;endSize=12;dashed=1;html=1;rounded=0;exitX=0.5;exitY=0;exitDx=0;exitDy=0;entryX=0.5;entryY=1;entryDx=0;entryDy=0;" parent="1" source="EZhdQGaTNvwdU1ir6YuT-1" target="jY9FTlbAgUVIiKB3Txwj-4" edge="1">
          <mxGeometry width="160" relative="1" as="geometry">
            <mxPoint x="430" y="640" as="sourcePoint" />
            <mxPoint x="590" y="640" as="targetPoint" />
          </mxGeometry>
        </mxCell>
        <mxCell id="EZhdQGaTNvwdU1ir6YuT-14" value="" style="ellipse;whiteSpace=wrap;html=1;" parent="1" vertex="1">
          <mxGeometry x="285" y="280" width="120" height="80" as="geometry" />
        </mxCell>
        <mxCell id="EZhdQGaTNvwdU1ir6YuT-15" value="Kosár" style="text;html=1;align=center;verticalAlign=middle;whiteSpace=wrap;rounded=0;" parent="1" vertex="1">
          <mxGeometry x="315" y="305" width="60" height="30" as="geometry" />
        </mxCell>
        <mxCell id="EZhdQGaTNvwdU1ir6YuT-16" value="" style="ellipse;whiteSpace=wrap;html=1;" parent="1" vertex="1">
          <mxGeometry x="460" y="375" width="120" height="80" as="geometry" />
        </mxCell>
        <mxCell id="EZhdQGaTNvwdU1ir6YuT-17" value="Termék hozzáadása" style="text;html=1;align=center;verticalAlign=middle;whiteSpace=wrap;rounded=0;" parent="1" vertex="1">
          <mxGeometry x="490" y="400" width="60" height="30" as="geometry" />
        </mxCell>
        <mxCell id="EZhdQGaTNvwdU1ir6YuT-18" value="" style="ellipse;whiteSpace=wrap;html=1;" parent="1" vertex="1">
          <mxGeometry x="460" y="280" width="120" height="80" as="geometry" />
        </mxCell>
        <mxCell id="EZhdQGaTNvwdU1ir6YuT-19" value="Termék szerkesztése" style="text;html=1;align=center;verticalAlign=middle;whiteSpace=wrap;rounded=0;" parent="1" vertex="1">
          <mxGeometry x="490" y="305" width="60" height="30" as="geometry" />
        </mxCell>
        <mxCell id="EZhdQGaTNvwdU1ir6YuT-20" value="" style="ellipse;whiteSpace=wrap;html=1;" parent="1" vertex="1">
          <mxGeometry x="460" y="185" width="120" height="80" as="geometry" />
        </mxCell>
        <mxCell id="EZhdQGaTNvwdU1ir6YuT-21" value="Termék törlése" style="text;html=1;align=center;verticalAlign=middle;whiteSpace=wrap;rounded=0;" parent="1" vertex="1">
          <mxGeometry x="490" y="210" width="60" height="30" as="geometry" />
        </mxCell>
        <mxCell id="EZhdQGaTNvwdU1ir6YuT-22" value="Extends" style="endArrow=block;endSize=16;endFill=0;html=1;rounded=0;exitX=0.5;exitY=1;exitDx=0;exitDy=0;entryX=0.5;entryY=0;entryDx=0;entryDy=0;" parent="1" source="EZhdQGaTNvwdU1ir6YuT-16" target="jY9FTlbAgUVIiKB3Txwj-4" edge="1">
          <mxGeometry width="160" relative="1" as="geometry">
            <mxPoint x="290" y="410" as="sourcePoint" />
            <mxPoint x="450" y="410" as="targetPoint" />
          </mxGeometry>
        </mxCell>
        <mxCell id="EZhdQGaTNvwdU1ir6YuT-24" value="Use" style="endArrow=open;endSize=12;dashed=1;html=1;rounded=0;entryX=0;entryY=0.5;entryDx=0;entryDy=0;" parent="1" source="EZhdQGaTNvwdU1ir6YuT-14" target="EZhdQGaTNvwdU1ir6YuT-16" edge="1">
          <mxGeometry width="160" relative="1" as="geometry">
            <mxPoint x="270" y="390" as="sourcePoint" />
            <mxPoint x="430" y="390" as="targetPoint" />
          </mxGeometry>
        </mxCell>
        <mxCell id="EZhdQGaTNvwdU1ir6YuT-25" value="Use" style="endArrow=open;endSize=12;dashed=1;html=1;rounded=0;exitX=1;exitY=0.5;exitDx=0;exitDy=0;entryX=0;entryY=0.5;entryDx=0;entryDy=0;" parent="1" source="EZhdQGaTNvwdU1ir6YuT-14" target="EZhdQGaTNvwdU1ir6YuT-18" edge="1">
          <mxGeometry width="160" relative="1" as="geometry">
            <mxPoint x="275" y="229.5" as="sourcePoint" />
            <mxPoint x="435" y="229.5" as="targetPoint" />
          </mxGeometry>
        </mxCell>
        <mxCell id="EZhdQGaTNvwdU1ir6YuT-26" value="Use" style="endArrow=open;endSize=12;dashed=1;html=1;rounded=0;exitX=0.5;exitY=0;exitDx=0;exitDy=0;entryX=0;entryY=0.5;entryDx=0;entryDy=0;" parent="1" source="EZhdQGaTNvwdU1ir6YuT-14" target="EZhdQGaTNvwdU1ir6YuT-20" edge="1">
          <mxGeometry width="160" relative="1" as="geometry">
            <mxPoint x="285" y="200" as="sourcePoint" />
            <mxPoint x="445" y="200" as="targetPoint" />
          </mxGeometry>
        </mxCell>
        <mxCell id="EZhdQGaTNvwdU1ir6YuT-27" value="Use" style="endArrow=open;endSize=12;dashed=1;html=1;rounded=0;entryX=0.5;entryY=1;entryDx=0;entryDy=0;exitX=0;exitY=0.5;exitDx=0;exitDy=0;" parent="1" source="EZhdQGaTNvwdU1ir6YuT-1" target="EZhdQGaTNvwdU1ir6YuT-14" edge="1">
          <mxGeometry width="160" relative="1" as="geometry">
            <mxPoint x="285" y="650" as="sourcePoint" />
            <mxPoint x="445" y="650" as="targetPoint" />
          </mxGeometry>
        </mxCell>
        <mxCell id="EZhdQGaTNvwdU1ir6YuT-34" style="rounded=0;orthogonalLoop=1;jettySize=auto;html=1;entryX=1;entryY=0.5;entryDx=0;entryDy=0;" parent="1" target="EZhdQGaTNvwdU1ir6YuT-5" edge="1">
          <mxGeometry relative="1" as="geometry">
            <mxPoint x="722.6470588235293" y="490" as="sourcePoint" />
          </mxGeometry>
        </mxCell>
        <mxCell id="EZhdQGaTNvwdU1ir6YuT-401" style="rounded=0;orthogonalLoop=1;jettySize=auto;html=1;entryX=1;entryY=0.5;entryDx=0;entryDy=0;" parent="1" target="EZhdQGaTNvwdU1ir6YuT-398" edge="1">
          <mxGeometry relative="1" as="geometry">
            <Array as="points">
              <mxPoint x="560" y="130" />
            </Array>
            <mxPoint x="720" y="431.7142857142858" as="sourcePoint" />
          </mxGeometry>
        </mxCell>
        <mxCell id="EZhdQGaTNvwdU1ir6YuT-410" style="rounded=0;orthogonalLoop=1;jettySize=auto;html=1;entryX=1;entryY=0.5;entryDx=0;entryDy=0;" parent="1" target="EZhdQGaTNvwdU1ir6YuT-1" edge="1">
          <mxGeometry relative="1" as="geometry">
            <mxPoint x="720" y="477.85714285714266" as="sourcePoint" />
          </mxGeometry>
        </mxCell>
        <mxCell id="EZhdQGaTNvwdU1ir6YuT-398" value="" style="ellipse;whiteSpace=wrap;html=1;" parent="1" vertex="1">
          <mxGeometry x="294" y="90" width="120" height="80" as="geometry" />
        </mxCell>
        <mxCell id="EZhdQGaTNvwdU1ir6YuT-399" value="Bejelentkezés" style="text;html=1;align=center;verticalAlign=middle;whiteSpace=wrap;rounded=0;" parent="1" vertex="1">
          <mxGeometry x="324" y="115" width="60" height="30" as="geometry" />
        </mxCell>
        <mxCell id="EZhdQGaTNvwdU1ir6YuT-403" style="rounded=0;orthogonalLoop=1;jettySize=auto;html=1;entryX=1;entryY=0.5;entryDx=0;entryDy=0;" parent="1" target="EZhdQGaTNvwdU1ir6YuT-3" edge="1">
          <mxGeometry relative="1" as="geometry">
            <mxPoint x="730" y="748.5227272727273" as="sourcePoint" />
          </mxGeometry>
        </mxCell>
        <mxCell id="EZhdQGaTNvwdU1ir6YuT-405" style="edgeStyle=orthogonalEdgeStyle;rounded=0;orthogonalLoop=1;jettySize=auto;html=1;entryX=1;entryY=0.5;entryDx=0;entryDy=0;" parent="1" target="EZhdQGaTNvwdU1ir6YuT-3" edge="1">
          <mxGeometry relative="1" as="geometry">
            <mxPoint x="730" y="865.0000000000002" as="sourcePoint" />
          </mxGeometry>
        </mxCell>
        <mxCell id="EZhdQGaTNvwdU1ir6YuT-406" value="Rendszer tulajdonos&lt;div&gt;(Adminisztrátor)&lt;/div&gt;" style="shape=umlActor;verticalLabelPosition=bottom;verticalAlign=top;html=1;" parent="1" vertex="1">
          <mxGeometry x="900" y="580" width="30" height="60" as="geometry" />
        </mxCell>
        <mxCell id="EZhdQGaTNvwdU1ir6YuT-407" value="Extends" style="endArrow=block;endSize=16;endFill=0;html=1;rounded=0;" parent="1" target="EZhdQGaTNvwdU1ir6YuT-406" edge="1">
          <mxGeometry width="160" relative="1" as="geometry">
            <mxPoint x="750" y="472.5" as="sourcePoint" />
            <mxPoint x="850" y="610" as="targetPoint" />
          </mxGeometry>
        </mxCell>
        <mxCell id="EZhdQGaTNvwdU1ir6YuT-408" value="Extends" style="endArrow=block;endSize=16;endFill=0;html=1;rounded=0;" parent="1" target="EZhdQGaTNvwdU1ir6YuT-406" edge="1">
          <mxGeometry width="160" relative="1" as="geometry">
            <mxPoint x="760" y="728.5294117647059" as="sourcePoint" />
            <mxPoint x="850" y="650" as="targetPoint" />
          </mxGeometry>
        </mxCell>
        <mxCell id="EZhdQGaTNvwdU1ir6YuT-409" value="Extends" style="endArrow=block;endSize=16;endFill=0;html=1;rounded=0;" parent="1" source="959OCG-gQPTi7Bl-Nk_r-4" target="EZhdQGaTNvwdU1ir6YuT-406" edge="1">
          <mxGeometry width="160" relative="1" as="geometry">
            <mxPoint x="760" y="842.5000000000002" as="sourcePoint" />
            <mxPoint x="980" y="835" as="targetPoint" />
          </mxGeometry>
        </mxCell>
        <mxCell id="959OCG-gQPTi7Bl-Nk_r-2" value="Bank kártya feldolgozó rendszer&lt;div&gt;&lt;br&gt;&lt;/div&gt;" style="ellipse;whiteSpace=wrap;html=1;aspect=fixed;" vertex="1" parent="1">
          <mxGeometry x="720" y="700" width="70" height="70" as="geometry" />
        </mxCell>
        <mxCell id="959OCG-gQPTi7Bl-Nk_r-3" value="&lt;span style=&quot;text-wrap-mode: nowrap;&quot;&gt;Autentikáció&lt;/span&gt;" style="ellipse;whiteSpace=wrap;html=1;aspect=fixed;" vertex="1" parent="1">
          <mxGeometry x="727.5" y="410" width="55" height="55" as="geometry" />
        </mxCell>
        <mxCell id="959OCG-gQPTi7Bl-Nk_r-5" value="" style="endArrow=block;endSize=16;endFill=0;html=1;rounded=0;" edge="1" parent="1" target="959OCG-gQPTi7Bl-Nk_r-4">
          <mxGeometry width="160" relative="1" as="geometry">
            <mxPoint x="760" y="842.5000000000002" as="sourcePoint" />
            <mxPoint x="900" y="633" as="targetPoint" />
          </mxGeometry>
        </mxCell>
        <mxCell id="959OCG-gQPTi7Bl-Nk_r-4" value="Pay pal&lt;div&gt;&lt;br&gt;&lt;/div&gt;" style="ellipse;whiteSpace=wrap;html=1;aspect=fixed;" vertex="1" parent="1">
          <mxGeometry x="725" y="825" width="60" height="60" as="geometry" />
        </mxCell>
      </root>
    </mxGraphModel>
  </diagram>
</mxfile>
